<mxfile host="app.diagrams.net" modified="2022-03-22T06:24:12.409Z" agent="5.0 (Windows NT 10.0; Win64; x64) AppleWebKit/537.36 (KHTML, like Gecko) Chrome/99.0.4844.74 Safari/537.36" etag="ltHGSRxEr6MrDRy7QGEv" version="17.1.3" type="github">
  <diagram id="VZOMDuga1m9ekVOHbU7n" name="Page-1">
    <mxGraphModel dx="1038" dy="539" grid="1" gridSize="10" guides="1" tooltips="1" connect="1" arrows="1" fold="1" page="1" pageScale="1" pageWidth="850" pageHeight="1100" math="0" shadow="0">
      <root>
        <mxCell id="0" />
        <mxCell id="1" parent="0" />
        <mxCell id="GtN73hDFTZVAAPLt3VZ2-1" value="" style="swimlane;startSize=0;" vertex="1" parent="1">
          <mxGeometry x="320" y="120" width="200" height="540" as="geometry" />
        </mxCell>
        <mxCell id="GtN73hDFTZVAAPLt3VZ2-2" value="Student Registration" style="ellipse;whiteSpace=wrap;html=1;" vertex="1" parent="GtN73hDFTZVAAPLt3VZ2-1">
          <mxGeometry x="30" y="10" width="140" height="70" as="geometry" />
        </mxCell>
        <mxCell id="GtN73hDFTZVAAPLt3VZ2-3" value="Manage Examination" style="ellipse;whiteSpace=wrap;html=1;" vertex="1" parent="GtN73hDFTZVAAPLt3VZ2-1">
          <mxGeometry x="30" y="100" width="140" height="70" as="geometry" />
        </mxCell>
        <mxCell id="GtN73hDFTZVAAPLt3VZ2-4" value="Manage Question Bank" style="ellipse;whiteSpace=wrap;html=1;" vertex="1" parent="GtN73hDFTZVAAPLt3VZ2-1">
          <mxGeometry x="30" y="190" width="140" height="70" as="geometry" />
        </mxCell>
        <mxCell id="GtN73hDFTZVAAPLt3VZ2-5" value="System Login" style="ellipse;whiteSpace=wrap;html=1;" vertex="1" parent="GtN73hDFTZVAAPLt3VZ2-1">
          <mxGeometry x="30" y="280" width="140" height="70" as="geometry" />
        </mxCell>
        <mxCell id="GtN73hDFTZVAAPLt3VZ2-6" value="Test" style="ellipse;whiteSpace=wrap;html=1;" vertex="1" parent="GtN73hDFTZVAAPLt3VZ2-1">
          <mxGeometry x="30" y="370" width="140" height="70" as="geometry" />
        </mxCell>
        <mxCell id="GtN73hDFTZVAAPLt3VZ2-7" value="Reports" style="ellipse;whiteSpace=wrap;html=1;" vertex="1" parent="GtN73hDFTZVAAPLt3VZ2-1">
          <mxGeometry x="30" y="460" width="140" height="70" as="geometry" />
        </mxCell>
        <mxCell id="GtN73hDFTZVAAPLt3VZ2-13" value="" style="endArrow=none;html=1;rounded=0;exitX=1;exitY=0.5;exitDx=0;exitDy=0;" edge="1" parent="GtN73hDFTZVAAPLt3VZ2-1" source="GtN73hDFTZVAAPLt3VZ2-3">
          <mxGeometry relative="1" as="geometry">
            <mxPoint x="180" y="200" as="sourcePoint" />
            <mxPoint x="300" y="230" as="targetPoint" />
          </mxGeometry>
        </mxCell>
        <mxCell id="GtN73hDFTZVAAPLt3VZ2-14" value="" style="endArrow=none;html=1;rounded=0;exitX=1;exitY=0.5;exitDx=0;exitDy=0;" edge="1" parent="GtN73hDFTZVAAPLt3VZ2-1" source="GtN73hDFTZVAAPLt3VZ2-4">
          <mxGeometry relative="1" as="geometry">
            <mxPoint x="180" y="210" as="sourcePoint" />
            <mxPoint x="300" y="230" as="targetPoint" />
          </mxGeometry>
        </mxCell>
        <mxCell id="GtN73hDFTZVAAPLt3VZ2-15" value="" style="endArrow=none;html=1;rounded=0;" edge="1" parent="GtN73hDFTZVAAPLt3VZ2-1">
          <mxGeometry relative="1" as="geometry">
            <mxPoint x="170" y="40" as="sourcePoint" />
            <mxPoint x="300" y="230" as="targetPoint" />
          </mxGeometry>
        </mxCell>
        <mxCell id="GtN73hDFTZVAAPLt3VZ2-16" value="" style="endArrow=none;html=1;rounded=0;" edge="1" parent="GtN73hDFTZVAAPLt3VZ2-1">
          <mxGeometry relative="1" as="geometry">
            <mxPoint x="170" y="310" as="sourcePoint" />
            <mxPoint x="300" y="230" as="targetPoint" />
          </mxGeometry>
        </mxCell>
        <mxCell id="GtN73hDFTZVAAPLt3VZ2-17" value="" style="endArrow=none;html=1;rounded=0;" edge="1" parent="GtN73hDFTZVAAPLt3VZ2-1">
          <mxGeometry relative="1" as="geometry">
            <mxPoint x="170" y="400" as="sourcePoint" />
            <mxPoint x="300" y="230" as="targetPoint" />
          </mxGeometry>
        </mxCell>
        <mxCell id="GtN73hDFTZVAAPLt3VZ2-18" value="" style="endArrow=none;html=1;rounded=0;" edge="1" parent="GtN73hDFTZVAAPLt3VZ2-1">
          <mxGeometry relative="1" as="geometry">
            <mxPoint x="170" y="490" as="sourcePoint" />
            <mxPoint x="300" y="230" as="targetPoint" />
          </mxGeometry>
        </mxCell>
        <mxCell id="GtN73hDFTZVAAPLt3VZ2-8" value="Student" style="shape=umlActor;verticalLabelPosition=bottom;verticalAlign=top;html=1;" vertex="1" parent="1">
          <mxGeometry x="90" y="315" width="70" height="150" as="geometry" />
        </mxCell>
        <mxCell id="GtN73hDFTZVAAPLt3VZ2-9" value="Administrator" style="shape=umlActor;verticalLabelPosition=bottom;verticalAlign=top;html=1;" vertex="1" parent="1">
          <mxGeometry x="640" y="317.5" width="70" height="145" as="geometry" />
        </mxCell>
        <mxCell id="GtN73hDFTZVAAPLt3VZ2-10" value="" style="endArrow=none;html=1;rounded=0;entryX=0;entryY=0.5;entryDx=0;entryDy=0;" edge="1" parent="1" target="GtN73hDFTZVAAPLt3VZ2-2">
          <mxGeometry relative="1" as="geometry">
            <mxPoint x="180" y="360" as="sourcePoint" />
            <mxPoint x="320" y="390" as="targetPoint" />
          </mxGeometry>
        </mxCell>
        <mxCell id="GtN73hDFTZVAAPLt3VZ2-11" value="" style="endArrow=none;html=1;rounded=0;entryX=0;entryY=0.5;entryDx=0;entryDy=0;" edge="1" parent="1" target="GtN73hDFTZVAAPLt3VZ2-5">
          <mxGeometry relative="1" as="geometry">
            <mxPoint x="180" y="360" as="sourcePoint" />
            <mxPoint x="300" y="340" as="targetPoint" />
          </mxGeometry>
        </mxCell>
        <mxCell id="GtN73hDFTZVAAPLt3VZ2-12" value="" style="endArrow=none;html=1;rounded=0;entryX=0;entryY=0.5;entryDx=0;entryDy=0;" edge="1" parent="1" target="GtN73hDFTZVAAPLt3VZ2-6">
          <mxGeometry relative="1" as="geometry">
            <mxPoint x="180" y="360" as="sourcePoint" />
            <mxPoint x="290" y="350" as="targetPoint" />
          </mxGeometry>
        </mxCell>
        <mxCell id="GtN73hDFTZVAAPLt3VZ2-20" value="Aditya Sharma&lt;br style=&quot;font-size: 19px;&quot;&gt;UID: 20BCS9872" style="text;html=1;strokeColor=none;fillColor=none;align=center;verticalAlign=middle;whiteSpace=wrap;rounded=0;fontSize=19;" vertex="1" parent="1">
          <mxGeometry x="10" y="170" width="230" height="60" as="geometry" />
        </mxCell>
      </root>
    </mxGraphModel>
  </diagram>
</mxfile>
